<svg xmlns="http://www.w3.org/2000/svg" xmlns:xlink="http://www.w3.org/1999/xlink" width="100" zoomAndPan="magnify" viewBox="0 0 75 74.999997" height="100" preserveAspectRatio="xMidYMid meet" version="1.0"><path fill="#ffc2b1" d="M 66.777344 66.777344 L 8.214844 66.777344 L 8.214844 8.214844 L 37.496094 8.214844 L 37.496094 -0.152344 L 8.214844 -0.152344 C 3.570312 -0.152344 -0.152344 3.613281 -0.152344 8.214844 L -0.152344 66.777344 C -0.152344 71.378906 3.570312 75.144531 8.214844 75.144531 L 66.777344 75.144531 C 71.378906 75.144531 75.144531 71.378906 75.144531 66.777344 L 75.144531 37.496094 L 66.777344 37.496094 Z M 45.863281 -0.152344 L 45.863281 8.214844 L 60.878906 8.214844 L 19.761719 49.335938 L 25.65625 55.230469 L 66.777344 14.113281 L 66.777344 29.128906 L 75.144531 29.128906 L 75.144531 -0.152344 Z M 45.863281 -0.152344 " fill-opacity="1" fill-rule="evenodd"/></svg>