<svg xmlns="http://www.w3.org/2000/svg" xmlns:xlink="http://www.w3.org/1999/xlink" width="1000" zoomAndPan="magnify" viewBox="0 0 750 749.999995" height="1000" preserveAspectRatio="xMidYMid meet" version="1.0"><path fill="#005249" d="M 0 0 L 0 750 L 750 750 L 750 0 Z M 270.117188 531.886719 L 197.019531 531.886719 L 197.019531 297.949219 L 270.117188 297.949219 Z M 231.589844 268.652344 L 231.003906 268.652344 C 204.492188 268.652344 187.351562 250.78125 187.351562 228.074219 C 187.351562 204.929688 205.078125 187.5 232.03125 187.5 C 258.984375 187.5 275.535156 204.929688 276.121094 228.074219 C 276.269531 250.636719 259.128906 268.652344 231.589844 268.652344 Z M 562.5 531.886719 L 479.589844 531.886719 L 479.589844 410.886719 C 479.589844 379.246094 466.699219 357.570312 438.132812 357.570312 C 416.308594 357.570312 404.148438 372.21875 398.582031 386.28125 C 396.53125 391.261719 396.824219 398.292969 396.824219 405.46875 L 396.824219 531.886719 L 314.648438 531.886719 C 314.648438 531.886719 315.671875 317.433594 314.648438 297.949219 L 396.824219 297.949219 L 396.824219 334.71875 C 401.660156 318.605469 427.878906 295.753906 469.773438 295.753906 C 521.777344 295.753906 562.5 329.445312 562.5 401.808594 Z M 562.5 531.886719 " fill-opacity="1" fill-rule="nonzero"/></svg>