<svg xmlns="http://www.w3.org/2000/svg" xmlns:xlink="http://www.w3.org/1999/xlink" width="500" zoomAndPan="magnify" viewBox="0 0 375 374.999991" height="500" preserveAspectRatio="xMidYMid meet" version="1.0"><defs><clipPath id="dc571bfda6"><path d="M 181 0 L 338.296875 0 L 338.296875 196 L 181 196 Z M 181 0 " clip-rule="nonzero"/></clipPath><clipPath id="35b41cc1e0"><path d="M 36.796875 179 L 194 179 L 194 375 L 36.796875 375 Z M 36.796875 179 " clip-rule="nonzero"/></clipPath><clipPath id="36b166bd48"><path d="M 36.796875 0 L 194 0 L 194 196 L 36.796875 196 Z M 36.796875 0 " clip-rule="nonzero"/></clipPath><clipPath id="cdfeb729b0"><path d="M 181 179 L 338.296875 179 L 338.296875 375 L 181 375 Z M 181 179 " clip-rule="nonzero"/></clipPath><clipPath id="1c53d76967"><path d="M 294 101.386719 L 325.902344 101.386719 L 325.902344 142 L 294 142 Z M 294 101.386719 " clip-rule="nonzero"/></clipPath><clipPath id="824a4e02b6"><path d="M 266.652344 136 L 298 136 L 298 176.386719 L 266.652344 176.386719 Z M 266.652344 136 " clip-rule="nonzero"/></clipPath><clipPath id="8568715005"><path d="M 266.652344 101.386719 L 298 101.386719 L 298 142 L 266.652344 142 Z M 266.652344 101.386719 " clip-rule="nonzero"/></clipPath><clipPath id="6b2bdaab34"><path d="M 294 136 L 325.902344 136 L 325.902344 176.386719 L 294 176.386719 Z M 294 136 " clip-rule="nonzero"/></clipPath><clipPath id="58b2f9ac74"><path d="M 255 37.5 L 296.734375 37.5 L 296.734375 86 L 255 86 Z M 255 37.5 " clip-rule="nonzero"/></clipPath><clipPath id="3b840d152a"><path d="M 217.234375 80 L 259 80 L 259 129 L 217.234375 129 Z M 217.234375 80 " clip-rule="nonzero"/></clipPath><clipPath id="1efe846c0d"><path d="M 217.234375 37.5 L 259 37.5 L 259 86 L 217.234375 86 Z M 217.234375 37.5 " clip-rule="nonzero"/></clipPath><clipPath id="7e962fee63"><path d="M 255 80 L 296.734375 80 L 296.734375 129 L 255 129 Z M 255 80 " clip-rule="nonzero"/></clipPath></defs><g clip-path="url(#dc571bfda6)"><path fill="#f3f2f2" d="M 187.515625 0.0117188 L 188.167969 14.636719 C 189.046875 44.394531 191.808594 71.875 196.449219 97.078125 C 198.136719 105.3125 200.242188 113.039062 202.765625 120.261719 L 206.941406 130.617188 C 209.960938 137.238281 213.554688 143.164062 217.726562 148.394531 C 221.929688 153.582031 226.707031 158.074219 232.0625 161.871094 L 240.445312 167.140625 C 246.292969 170.335938 252.5625 173.027344 259.246094 175.210938 C 275.753906 180.925781 302.082031 185.03125 338.230469 187.527344 L 181.601562 195.714844 L 187.515625 0.0117188 " fill-opacity="1" fill-rule="nonzero"/></g><g clip-path="url(#35b41cc1e0)"><path fill="#f3f2f2" d="M 187.550781 375.015625 L 186.898438 360.390625 C 186.019531 330.632812 183.257812 303.152344 178.617188 277.949219 C 176.929688 269.714844 174.824219 261.988281 172.300781 254.765625 L 168.125 244.410156 C 165.105469 237.789062 161.511719 231.863281 157.339844 226.632812 C 153.136719 221.445312 148.359375 216.953125 143.003906 213.15625 L 134.621094 207.886719 C 128.773438 204.691406 122.503906 202 115.820312 199.816406 C 99.3125 194.101562 72.984375 189.996094 36.835938 187.5 L 193.464844 179.3125 L 187.550781 375.015625 " fill-opacity="1" fill-rule="nonzero"/></g><g clip-path="url(#36b166bd48)"><path fill="#f3f2f2" d="M 187.550781 0.0117188 L 186.898438 14.636719 C 186.019531 44.394531 183.257812 71.875 178.617188 97.078125 C 176.929688 105.3125 174.824219 113.039062 172.300781 120.261719 L 168.125 130.617188 C 165.105469 137.238281 161.511719 143.164062 157.339844 148.394531 C 153.136719 153.582031 148.359375 158.074219 143.003906 161.871094 L 134.621094 167.140625 C 128.773438 170.335938 122.503906 173.027344 115.820312 175.210938 C 99.3125 180.925781 72.984375 185.03125 36.835938 187.527344 L 193.464844 195.714844 L 187.550781 0.0117188 " fill-opacity="1" fill-rule="nonzero"/></g><g clip-path="url(#cdfeb729b0)"><path fill="#f3f2f2" d="M 187.515625 375.015625 L 188.167969 360.390625 C 189.046875 330.632812 191.808594 303.152344 196.449219 277.949219 C 198.136719 269.714844 200.242188 261.988281 202.765625 254.765625 L 206.941406 244.410156 C 209.960938 237.789062 213.554688 231.863281 217.726562 226.632812 C 221.929688 221.445312 226.707031 216.953125 232.0625 213.15625 L 240.445312 207.886719 C 246.292969 204.691406 252.5625 202 259.246094 199.816406 C 275.753906 194.101562 302.082031 189.996094 338.230469 187.5 L 181.601562 179.3125 L 187.515625 375.015625 " fill-opacity="1" fill-rule="nonzero"/></g><g clip-path="url(#1c53d76967)"><path fill="#f3f2f2" d="M 296.222656 101.421875 L 296.28125 104.445312 C 296.304688 110.597656 296.726562 116.261719 297.539062 121.433594 C 297.839844 123.125 298.226562 124.703125 298.703125 126.175781 L 299.5 128.28125 C 300.078125 129.625 300.78125 130.816406 301.601562 131.859375 C 302.429688 132.894531 303.378906 133.78125 304.445312 134.519531 L 306.125 135.53125 C 307.296875 136.136719 308.558594 136.636719 309.90625 137.027344 C 313.234375 138.058594 318.566406 138.664062 325.90625 138.84375 L 294.691406 141.09375 L 296.222656 101.421875 " fill-opacity="1" fill-rule="nonzero"/></g><g clip-path="url(#824a4e02b6)"><path fill="#f3f2f2" d="M 296.335938 176.355469 L 296.277344 173.332031 C 296.253906 167.179688 295.835938 161.515625 295.019531 156.34375 C 294.71875 154.652344 294.332031 153.074219 293.855469 151.601562 L 293.0625 149.496094 C 292.480469 148.152344 291.78125 146.960938 290.960938 145.917969 C 290.132812 144.882812 289.183594 143.996094 288.113281 143.261719 L 286.4375 142.246094 C 285.261719 141.640625 284.003906 141.140625 282.652344 140.75 C 279.328125 139.722656 273.992188 139.113281 266.65625 138.933594 L 297.871094 136.683594 L 296.335938 176.355469 " fill-opacity="1" fill-rule="nonzero"/></g><g clip-path="url(#8568715005)"><path fill="#f3f2f2" d="M 296.335938 101.421875 L 296.277344 104.445312 C 296.253906 110.597656 295.835938 116.261719 295.019531 121.433594 C 294.71875 123.125 294.332031 124.703125 293.855469 126.175781 L 293.0625 128.28125 C 292.480469 129.625 291.78125 130.816406 290.960938 131.859375 C 290.132812 132.894531 289.183594 133.78125 288.113281 134.519531 L 286.4375 135.53125 C 285.261719 136.136719 284.003906 136.636719 282.652344 137.027344 C 279.328125 138.058594 273.992188 138.664062 266.65625 138.84375 L 297.871094 141.09375 L 296.335938 101.421875 " fill-opacity="1" fill-rule="nonzero"/></g><g clip-path="url(#6b2bdaab34)"><path fill="#f3f2f2" d="M 296.222656 176.355469 L 296.28125 173.332031 C 296.304688 167.179688 296.726562 161.515625 297.539062 156.34375 C 297.839844 154.652344 298.226562 153.074219 298.703125 151.601562 L 299.5 149.496094 C 300.078125 148.152344 300.78125 146.960938 301.601562 145.917969 C 302.429688 144.882812 303.378906 143.996094 304.445312 143.261719 L 306.125 142.246094 C 307.296875 141.640625 308.558594 141.140625 309.90625 140.75 C 313.234375 139.722656 318.566406 139.113281 325.90625 138.933594 L 294.691406 136.683594 L 296.222656 176.355469 " fill-opacity="1" fill-rule="nonzero"/></g><g clip-path="url(#58b2f9ac74)"><path fill="#f3f2f2" d="M 256.9375 37.503906 L 257.09375 40.957031 C 257.363281 48.042969 257.84375 54.351562 258.539062 59.890625 C 259.234375 64.074219 259.714844 66.363281 259.976562 66.753906 C 260.296875 67.890625 260.835938 69 261.59375 70.085938 C 262.898438 71.59375 264.476562 72.023438 266.332031 71.386719 C 267.988281 71.09375 271.199219 68.960938 275.960938 64.988281 C 271.910156 69.148438 269.445312 72.1875 268.566406 74.105469 C 268.183594 74.882812 267.960938 75.613281 267.898438 76.296875 L 267.957031 77.28125 C 268.082031 77.914062 268.433594 78.480469 269.003906 78.984375 C 269.585938 79.484375 270.390625 79.921875 271.414062 80.296875 C 271.710938 80.546875 273.644531 80.996094 277.210938 81.644531 C 280.972656 82.242188 287.472656 82.722656 296.710938 83.085938 L 255.035156 85.929688 L 256.9375 37.503906 " fill-opacity="1" fill-rule="nonzero"/></g><g clip-path="url(#3b840d152a)"><path fill="#f3f2f2" d="M 257.03125 129.003906 L 256.875 125.550781 C 256.605469 118.46875 256.125 112.15625 255.429688 106.617188 C 254.734375 102.433594 254.253906 100.148438 253.992188 99.757812 C 253.671875 98.617188 253.132812 97.507812 252.375 96.421875 C 251.070312 94.917969 249.492188 94.484375 247.636719 95.125 C 245.980469 95.417969 242.769531 97.546875 238.007812 101.519531 C 242.058594 97.359375 244.523438 94.320312 245.402344 92.402344 C 245.785156 91.628906 246.007812 90.894531 246.070312 90.210938 L 246.011719 89.226562 C 245.886719 88.597656 245.535156 88.027344 244.964844 87.523438 C 244.382812 87.023438 243.578125 86.585938 242.554688 86.210938 C 242.257812 85.960938 240.324219 85.511719 236.757812 84.863281 C 232.996094 84.269531 226.496094 83.789062 217.257812 83.421875 L 258.933594 80.578125 L 257.03125 129.003906 " fill-opacity="1" fill-rule="nonzero"/></g><g clip-path="url(#1efe846c0d)"><path fill="#f3f2f2" d="M 257.03125 37.503906 L 256.875 40.957031 C 256.605469 48.042969 256.125 54.351562 255.429688 59.890625 C 254.734375 64.074219 254.253906 66.363281 253.992188 66.753906 C 253.671875 67.890625 253.132812 69 252.375 70.085938 C 251.070312 71.59375 249.492188 72.023438 247.636719 71.386719 C 245.980469 71.09375 242.769531 68.960938 238.007812 64.988281 C 242.058594 69.148438 244.523438 72.1875 245.402344 74.105469 C 245.785156 74.882812 246.007812 75.613281 246.070312 76.296875 L 246.011719 77.28125 C 245.886719 77.914062 245.535156 78.480469 244.964844 78.984375 C 244.382812 79.484375 243.578125 79.921875 242.554688 80.296875 C 242.257812 80.546875 240.324219 80.996094 236.757812 81.644531 C 232.996094 82.242188 226.496094 82.722656 217.257812 83.085938 L 258.933594 85.929688 L 257.03125 37.503906 " fill-opacity="1" fill-rule="nonzero"/></g><g clip-path="url(#7e962fee63)"><path fill="#f3f2f2" d="M 256.9375 129.003906 L 257.09375 125.550781 C 257.363281 118.46875 257.84375 112.15625 258.539062 106.617188 C 259.234375 102.433594 259.714844 100.148438 259.976562 99.757812 C 260.296875 98.617188 260.835938 97.507812 261.59375 96.421875 C 262.898438 94.917969 264.476562 94.484375 266.332031 95.125 C 267.988281 95.417969 271.199219 97.546875 275.960938 101.519531 C 271.910156 97.359375 269.445312 94.320312 268.566406 92.402344 C 268.183594 91.628906 267.960938 90.894531 267.898438 90.210938 L 267.957031 89.226562 C 268.082031 88.597656 268.433594 88.027344 269.003906 87.523438 C 269.585938 87.023438 270.390625 86.585938 271.414062 86.210938 C 271.710938 85.960938 273.644531 85.511719 277.210938 84.863281 C 280.972656 84.269531 287.472656 83.789062 296.710938 83.421875 L 255.035156 80.578125 L 256.9375 129.003906 " fill-opacity="1" fill-rule="nonzero"/></g></svg>