<svg xmlns="http://www.w3.org/2000/svg" xmlns:xlink="http://www.w3.org/1999/xlink" width="200" zoomAndPan="magnify" viewBox="0 0 150 149.999998" height="200" preserveAspectRatio="xMidYMid meet" version="1.0"><path fill="#005249" d="M 31.835938 0.148438 L 38.585938 0.148438 L 38.585938 6.8125 L 44.757812 6.8125 L 44.757812 0.148438 L 51.503906 0.148438 L 51.503906 20.335938 L 44.757812 20.335938 L 44.757812 13.574219 L 38.585938 13.574219 L 38.585938 20.335938 L 31.835938 20.335938 Z M 60.378906 6.839844 L 54.4375 6.839844 L 54.4375 0.148438 L 73.070312 0.148438 L 73.070312 6.839844 L 67.125 6.839844 L 67.125 20.335938 L 60.378906 20.335938 Z M 76.027344 0.148438 L 83.0625 0.148438 L 87.390625 7.242188 L 91.714844 0.148438 L 98.753906 0.148438 L 98.753906 20.335938 L 92.03125 20.335938 L 92.03125 10.328125 L 87.390625 17.507812 L 87.273438 17.507812 L 82.628906 10.328125 L 82.628906 20.335938 L 76.027344 20.335938 Z M 102.109375 0.148438 L 108.859375 0.148438 L 108.859375 13.664062 L 118.351562 13.664062 L 118.351562 20.335938 L 102.109375 20.335938 Z M 21.96875 29.566406 L 31.621094 137.828125 L 74.933594 149.851562 L 118.367188 137.8125 L 128.03125 29.566406 Z M 107.898438 55.257812 L 107.292969 61.992188 L 107.027344 64.976562 L 56.214844 64.976562 L 57.429688 78.570312 L 105.820312 78.570312 L 105.496094 82.136719 L 102.375 117.09375 L 102.175781 119.335938 L 75 126.867188 L 75 126.871094 L 74.9375 126.886719 L 47.738281 119.335938 L 45.878906 98.488281 L 59.207031 98.488281 L 60.152344 109.078125 L 74.941406 113.074219 L 74.953125 113.070312 L 74.953125 113.066406 L 89.761719 109.070312 L 91.304688 91.851562 L 45.285156 91.851562 L 42.023438 55.257812 L 41.707031 51.699219 L 108.214844 51.699219 Z M 107.898438 55.257812 " fill-opacity="1" fill-rule="nonzero"/><path fill="#000000" d="M 169.585938 141.378906 L 146.164062 154.957031 C 145.285156 155.464844 144.75 156.402344 144.757812 157.417969 L 144.757812 184.574219 C 144.757812 185.589844 145.296875 186.527344 146.164062 187.027344 L 169.59375 200.621094 C 170.464844 201.128906 171.535156 201.128906 172.414062 200.621094 L 195.835938 187.035156 C 196.703125 186.527344 197.242188 185.589844 197.242188 184.585938 L 197.242188 157.414062 C 197.242188 156.398438 196.703125 155.460938 195.824219 154.953125 L 172.417969 141.378906 C 171.546875 140.871094 170.464844 140.871094 169.59375 141.378906 Z M 169.585938 141.378906 " fill-opacity="1" fill-rule="nonzero"/></svg>