<svg xmlns="http://www.w3.org/2000/svg" xmlns:xlink="http://www.w3.org/1999/xlink" width="200" zoomAndPan="magnify" viewBox="0 0 150 149.999998" height="200" preserveAspectRatio="xMidYMid meet" version="1.0"><path fill="#005249" d="M 46.886719 0 L 63 0 L 63 6.738281 L 53.625 6.738281 L 53.625 13.476562 L 63 13.476562 L 63 20.214844 L 46.886719 20.214844 Z M 46.886719 0 " fill-opacity="1" fill-rule="nonzero"/><path fill="#005249" d="M 66.21875 0 L 82.335938 0 L 82.335938 5.859375 L 72.960938 5.859375 L 72.960938 7.03125 L 82.335938 7.03125 L 82.335938 20.507812 L 66.21875 20.507812 L 66.21875 14.355469 L 75.59375 14.355469 L 75.59375 13.183594 L 66.21875 13.183594 Z M 66.21875 0 " fill-opacity="1" fill-rule="nonzero"/><path fill="#005249" d="M 85.558594 0 L 101.671875 0 L 101.671875 5.859375 L 92.296875 5.859375 L 92.296875 7.03125 L 101.671875 7.03125 L 101.671875 20.507812 L 85.558594 20.507812 L 85.558594 14.355469 L 94.933594 14.355469 L 94.933594 13.183594 L 85.558594 13.183594 Z M 85.558594 0 " fill-opacity="1" fill-rule="nonzero"/><path fill="#005249" d="M 74.945312 150 L 31.546875 137.953125 L 18.75 29.476562 L 131.25 29.476562 L 118.464844 137.933594 Z M 44.046875 78.578125 L 45.238281 91.882812 L 91.34375 91.882812 L 89.800781 109.136719 L 74.964844 113.140625 L 74.949219 113.144531 L 60.132812 109.144531 L 59.1875 98.535156 L 45.832031 98.535156 L 47.695312 119.425781 L 74.945312 126.988281 L 102.238281 119.421875 L 105.5625 82.152344 L 105.886719 78.578125 L 108.289062 51.652344 L 41.648438 51.652344 L 42.859375 64.957031 L 93.710938 64.957031 L 92.5 78.578125 Z M 44.046875 78.578125 " fill-opacity="1" fill-rule="evenodd"/><path fill="#000000" d="M 169.585938 141.378906 L 146.164062 154.957031 C 145.285156 155.464844 144.75 156.402344 144.757812 157.417969 L 144.757812 184.574219 C 144.757812 185.589844 145.296875 186.527344 146.164062 187.027344 L 169.59375 200.621094 C 170.464844 201.128906 171.535156 201.128906 172.414062 200.621094 L 195.835938 187.035156 C 196.703125 186.527344 197.242188 185.589844 197.242188 184.585938 L 197.242188 157.414062 C 197.242188 156.398438 196.703125 155.460938 195.824219 154.953125 L 172.417969 141.378906 C 171.546875 140.871094 170.464844 140.871094 169.59375 141.378906 Z M 169.585938 141.378906 " fill-opacity="1" fill-rule="nonzero"/></svg>