<svg xmlns="http://www.w3.org/2000/svg" xmlns:xlink="http://www.w3.org/1999/xlink" width="200" zoomAndPan="magnify" viewBox="0 0 150 149.999998" height="200" preserveAspectRatio="xMidYMid meet" version="1.0"><path fill="#000000" d="M 169.585938 141.378906 L 146.164062 154.957031 C 145.285156 155.464844 144.75 156.402344 144.757812 157.417969 L 144.757812 184.574219 C 144.757812 185.589844 145.296875 186.527344 146.164062 187.027344 L 169.59375 200.621094 C 170.464844 201.128906 171.535156 201.128906 172.414062 200.621094 L 195.835938 187.035156 C 196.703125 186.527344 197.242188 185.589844 197.242188 184.585938 L 197.242188 157.414062 C 197.242188 156.398438 196.703125 155.460938 195.824219 154.953125 L 172.417969 141.378906 C 171.546875 140.871094 170.464844 140.871094 169.59375 141.378906 Z M 169.585938 141.378906 " fill-opacity="1" fill-rule="nonzero"/><path fill="#005249" d="M 0.296875 0.148438 C 0.128906 0.171875 0.140625 0.371094 0.152344 0.574219 C 0.152344 50.28125 0.152344 99.980469 0.152344 149.6875 C 49.769531 150.019531 100 149.734375 149.851562 149.828125 C 149.851562 99.933594 149.851562 50.042969 149.851562 0.148438 C 100.003906 0.148438 50.148438 0.148438 0.296875 0.148438 Z M 76.140625 132.472656 C 72.675781 135.960938 67.210938 138.019531 60.488281 138.019531 C 49.460938 138.019531 43.335938 132.644531 39.425781 125.214844 C 43.191406 122.8125 47.035156 120.488281 50.953125 118.242188 C 52.550781 122.714844 57.953125 127.738281 64.046875 124.644531 C 67.90625 122.683594 67.460938 116.730469 67.460938 110.273438 C 67.460938 96.863281 67.460938 81.394531 67.460938 69.296875 C 67.449219 69.09375 67.4375 68.894531 67.601562 68.867188 C 72.203125 68.867188 76.804688 68.867188 81.40625 68.867188 C 81.40625 79.644531 81.40625 91.839844 81.40625 103.300781 C 81.40625 115.78125 82.296875 126.265625 76.140625 132.472656 Z M 137.898438 120.09375 C 137.117188 131.777344 127.574219 137.980469 114.703125 138.019531 C 102.089844 138.054688 94.015625 132.449219 89.089844 123.789062 C 92.628906 121.355469 96.640625 119.390625 100.332031 117.105469 C 103.285156 121.722656 108.398438 126.160156 115.984375 125.5 C 120.710938 125.085938 126.195312 121.234375 123.101562 115.394531 C 121.597656 112.566406 117.96875 111.128906 114.703125 109.707031 C 104.347656 105.1875 92.195312 101.042969 93.359375 84.804688 C 93.746094 79.382812 96.246094 75.570312 99.480469 72.851562 C 102.792969 70.070312 107.230469 68.203125 113.140625 68.015625 C 123.871094 67.671875 129.757812 72.445312 133.773438 79.113281 C 130.355469 81.71875 126.589844 83.980469 122.816406 86.230469 C 121.578125 82.421875 115.597656 78.710938 110.578125 80.964844 C 108.296875 81.988281 106.246094 84.996094 107.449219 88.648438 C 108.519531 91.902344 112.894531 93.6875 116.414062 95.191406 C 127.0625 99.75 138.964844 104.207031 137.898438 120.09375 Z M 137.898438 120.09375 " fill-opacity="1" fill-rule="evenodd"/></svg>