<svg xmlns="http://www.w3.org/2000/svg" xmlns:xlink="http://www.w3.org/1999/xlink" width="200" zoomAndPan="magnify" viewBox="0 0 150 149.999998" height="200" preserveAspectRatio="xMidYMid meet" version="1.0"><path fill="#005249" d="M 67.59375 0.992188 L 52.792969 0.992188 C 36.445312 0.992188 23.191406 14.242188 23.191406 30.59375 C 23.191406 39.433594 27.066406 47.371094 33.214844 52.792969 C 27.066406 58.21875 23.191406 66.152344 23.191406 74.996094 C 23.191406 83.835938 27.066406 91.773438 33.214844 97.195312 C 27.066406 102.621094 23.191406 110.554688 23.191406 119.398438 C 23.191406 135.746094 36.445312 149 52.792969 149 C 69.140625 149 82.394531 135.746094 82.394531 119.398438 L 82.394531 100.636719 C 86.75 103.15625 91.804688 104.597656 97.195312 104.597656 C 113.542969 104.597656 126.796875 91.34375 126.796875 74.996094 C 126.796875 66.152344 122.921875 58.21875 116.777344 52.792969 C 122.921875 47.371094 126.796875 39.433594 126.796875 30.59375 C 126.796875 14.242188 113.542969 0.992188 97.195312 0.992188 Z M 82.394531 15.792969 L 82.394531 45.394531 L 97.195312 45.394531 C 105.371094 45.394531 111.996094 38.765625 111.996094 30.59375 C 111.996094 22.417969 105.371094 15.792969 97.195312 15.792969 Z M 67.59375 60.195312 L 52.792969 60.195312 C 44.621094 60.195312 37.992188 66.820312 37.992188 74.996094 C 37.992188 83.167969 44.621094 89.796875 52.792969 89.796875 L 67.59375 89.796875 Z M 52.792969 45.394531 L 67.59375 45.394531 L 67.59375 15.792969 L 52.792969 15.792969 C 44.621094 15.792969 37.992188 22.417969 37.992188 30.59375 C 37.992188 38.765625 44.621094 45.394531 52.792969 45.394531 Z M 82.394531 74.996094 C 82.394531 83.167969 89.023438 89.796875 97.195312 89.796875 C 105.371094 89.796875 111.996094 83.167969 111.996094 74.996094 C 111.996094 66.820312 105.371094 60.195312 97.195312 60.195312 C 89.023438 60.195312 82.394531 66.820312 82.394531 74.996094 Z M 52.792969 104.597656 L 67.59375 104.597656 L 67.59375 119.398438 C 67.59375 127.570312 60.96875 134.199219 52.792969 134.199219 C 44.621094 134.199219 37.992188 127.570312 37.992188 119.398438 C 37.992188 111.222656 44.621094 104.597656 52.792969 104.597656 Z M 52.792969 104.597656 " fill-opacity="1" fill-rule="evenodd"/></svg>