<svg xmlns="http://www.w3.org/2000/svg" xmlns:xlink="http://www.w3.org/1999/xlink" width="200" zoomAndPan="magnify" viewBox="0 0 150 149.999998" height="200" preserveAspectRatio="xMidYMid meet" version="1.0"><path fill="#000000" d="M 169.585938 141.378906 L 146.164062 154.957031 C 145.285156 155.464844 144.75 156.402344 144.757812 157.417969 L 144.757812 184.574219 C 144.757812 185.589844 145.296875 186.527344 146.164062 187.027344 L 169.59375 200.621094 C 170.464844 201.128906 171.535156 201.128906 172.414062 200.621094 L 195.835938 187.035156 C 196.703125 186.527344 197.242188 185.589844 197.242188 184.585938 L 197.242188 157.414062 C 197.242188 156.398438 196.703125 155.460938 195.824219 154.953125 L 172.417969 141.378906 C 171.546875 140.871094 170.464844 140.871094 169.59375 141.378906 Z M 169.585938 141.378906 " fill-opacity="1" fill-rule="nonzero"/><path fill="#005249" d="M 0 75 L 0 150 L 150 150 L 150 0 L 0 0 Z M 120.882812 69.023438 C 124.695312 69.976562 127.59375 71.667969 130.261719 74.429688 C 131.644531 75.90625 133.695312 78.59375 133.855469 79.242188 C 133.90625 79.429688 127.382812 83.804688 123.429688 86.261719 C 123.289062 86.355469 122.710938 85.738281 122.074219 84.789062 C 120.136719 81.976562 118.117188 80.761719 115.023438 80.550781 C 110.476562 80.238281 107.550781 82.617188 107.574219 86.59375 C 107.53125 87.589844 107.746094 88.527344 108.210938 89.40625 C 109.210938 91.476562 111.074219 92.71875 116.898438 95.238281 C 127.644531 99.863281 132.238281 102.90625 135.09375 107.238281 C 138.28125 112.070312 139 119.789062 136.832031 125.523438 C 134.457031 131.761719 128.550781 136 120.238281 137.398438 C 117.667969 137.855469 111.574219 137.789062 108.8125 137.289062 C 102.789062 136.210938 97.074219 133.238281 93.550781 129.332031 C 92.167969 127.8125 89.476562 123.832031 89.644531 123.550781 C 89.710938 123.449219 90.332031 123.070312 91.019531 122.667969 C 91.695312 122.289062 94.210938 120.832031 96.59375 119.449219 L 100.90625 116.949219 L 101.8125 118.289062 C 103.074219 120.210938 105.832031 122.855469 107.5 123.738281 C 112.289062 126.261719 118.855469 125.90625 122.09375 123 C 122.753906 122.445312 123.253906 121.769531 123.597656 120.980469 C 123.945312 120.1875 124.09375 119.363281 124.050781 118.5 C 124.050781 116.761719 123.832031 116 122.925781 114.6875 C 121.761719 113.023438 119.382812 111.625 112.617188 108.6875 C 104.882812 105.355469 101.550781 103.289062 98.5 100 C 96.574219 97.804688 95.199219 95.304688 94.382812 92.5 C 93.8125 90.382812 93.667969 85.070312 94.117188 82.929688 C 95.710938 75.449219 101.355469 70.242188 109.5 68.695312 C 112.144531 68.195312 118.289062 68.382812 120.882812 69.023438 Z M 85.667969 75.289062 L 85.71875 81.429688 L 66.1875 81.429688 L 66.1875 136.90625 L 52.375 136.90625 L 52.375 81.429688 L 32.863281 81.429688 L 32.863281 75.40625 C 32.863281 72.070312 32.929688 69.28125 33.023438 69.21875 C 33.101562 69.117188 44.980469 69.070312 59.382812 69.09375 L 85.601562 69.167969 Z M 85.667969 75.289062 " fill-opacity="1" fill-rule="nonzero"/></svg>