<svg xmlns="http://www.w3.org/2000/svg" xmlns:xlink="http://www.w3.org/1999/xlink" width="200" zoomAndPan="magnify" viewBox="0 0 150 149.999998" height="200" preserveAspectRatio="xMidYMid meet" version="1.0"><path fill="#005249" d="M 0 45.835938 L 0 95.835938 L 41.664062 95.835938 L 41.664062 104.164062 L 75 104.164062 L 75 95.835938 L 150 95.835938 L 150 45.835938 Z M 41.664062 87.488281 L 33.335938 87.488281 L 33.335938 62.488281 L 24.992188 62.488281 L 24.992188 87.488281 L 8.34375 87.488281 L 8.34375 54.167969 L 41.664062 54.167969 Z M 66.664062 87.488281 L 66.664062 95.835938 L 50.007812 95.835938 L 50.007812 54.167969 L 83.34375 54.167969 L 83.34375 87.492188 L 66.664062 87.492188 Z M 141.667969 87.488281 L 133.355469 87.488281 L 133.355469 62.488281 L 125.007812 62.488281 L 125.007812 87.488281 L 116.664062 87.488281 L 116.664062 62.488281 L 108.351562 62.488281 L 108.351562 87.488281 L 91.65625 87.488281 L 91.65625 54.167969 L 141.667969 54.167969 Z M 66.65625 62.5 L 75 62.5 L 75 79.167969 L 66.65625 79.167969 Z M 66.65625 62.5 " fill-opacity="1" fill-rule="nonzero"/><path fill="#000000" d="M 169.585938 141.378906 L 146.164062 154.957031 C 145.285156 155.464844 144.75 156.402344 144.757812 157.417969 L 144.757812 184.574219 C 144.757812 185.589844 145.296875 186.527344 146.164062 187.027344 L 169.59375 200.621094 C 170.464844 201.128906 171.535156 201.128906 172.414062 200.621094 L 195.835938 187.035156 C 196.703125 186.527344 197.242188 185.589844 197.242188 184.585938 L 197.242188 157.414062 C 197.242188 156.398438 196.703125 155.460938 195.824219 154.953125 L 172.417969 141.378906 C 171.546875 140.871094 170.464844 140.871094 169.59375 141.378906 Z M 169.585938 141.378906 " fill-opacity="1" fill-rule="nonzero"/></svg>