<svg xmlns="http://www.w3.org/2000/svg" xmlns:xlink="http://www.w3.org/1999/xlink" width="200" zoomAndPan="magnify" viewBox="0 0 150 149.999998" height="200" preserveAspectRatio="xMidYMid meet" version="1.0"><path fill="#005249" d="M 67.09375 104.113281 C 69.671875 104.230469 72.304688 104.316406 74.972656 104.316406 C 77.667969 104.316406 80.328125 104.257812 82.941406 104.113281 C 80.328125 107.488281 77.75 110.476562 75.023438 113.320312 L 75.0625 113.28125 C 72.347656 110.46875 69.742188 107.480469 67.285156 104.367188 Z M 40.382812 100.363281 C 45.460938 101.652344 51.652344 102.75 57.96875 103.425781 L 58.585938 103.476562 C 62.453125 108.789062 66.359375 113.460938 70.554688 117.859375 L 70.503906 117.800781 C 64.359375 124.660156 56.066406 129.476562 46.6875 131.207031 L 46.429688 131.246094 C 46.410156 131.246094 46.390625 131.246094 46.375 131.246094 C 45.210938 131.246094 44.113281 130.960938 43.152344 130.453125 L 43.191406 130.472656 C 39.289062 128.246094 37.597656 119.726562 38.914062 108.78125 C 39.230469 106.085938 39.746094 103.25 40.378906 100.359375 Z M 109.679688 100.304688 C 110.230469 102.523438 110.75 105.355469 111.121094 108.234375 L 111.164062 108.636719 C 112.507812 119.578125 110.851562 128.085938 106.984375 130.359375 C 106.121094 130.835938 105.089844 131.117188 103.992188 131.117188 C 103.882812 131.117188 103.777344 131.113281 103.667969 131.109375 L 103.683594 131.109375 C 94.058594 129.351562 85.773438 124.566406 79.640625 117.792969 L 79.609375 117.753906 C 83.726562 113.429688 87.609375 108.765625 91.167969 103.855469 L 91.4375 103.460938 C 98.359375 102.742188 104.558594 101.625 110.601562 100.101562 L 109.679688 100.296875 Z M 45.863281 82.808594 C 47.035156 85.105469 48.261719 87.394531 49.613281 89.691406 C 50.960938 91.976562 52.335938 94.207031 53.742188 96.382812 C 49.671875 95.789062 45.746094 95.039062 41.992188 94.125 C 43.046875 90.4375 44.367188 86.617188 45.859375 82.800781 Z M 104.117188 82.691406 C 105.671875 86.539062 106.988281 90.378906 108.078125 94.101562 C 104.328125 95.019531 100.367188 95.796875 96.273438 96.382812 C 97.679688 94.1875 99.085938 91.921875 100.402344 89.601562 C 101.71875 87.320312 102.953125 84.984375 104.128906 82.6875 Z M 35.714844 57.617188 C 37.757812 64.546875 39.953125 70.339844 42.507812 75.929688 L 42.15625 75.074219 C 39.96875 79.785156 37.808594 85.546875 36.039062 91.476562 L 35.792969 92.4375 C 32.484375 91.421875 29.820312 90.421875 27.230469 89.300781 L 27.769531 89.507812 C 17.625 85.191406 11.0625 79.515625 11.0625 75.015625 C 11.0625 70.515625 17.625 64.808594 27.769531 60.511719 C 30.230469 59.457031 32.925781 58.503906 35.710938 57.617188 Z M 114.179688 57.59375 C 117.015625 58.472656 119.710938 59.453125 122.230469 60.511719 C 132.375 64.847656 138.9375 70.515625 138.9375 75.015625 C 138.910156 79.515625 132.347656 85.203125 122.203125 89.511719 C 119.742188 90.566406 117.046875 91.515625 114.265625 92.398438 C 112.203125 85.449219 110.011719 79.660156 107.464844 74.0625 L 107.820312 74.945312 C 109.996094 70.238281 112.164062 64.476562 113.929688 58.546875 L 114.179688 57.582031 Z M 96.234375 53.644531 C 100.308594 54.25 104.230469 54.988281 107.984375 55.914062 C 106.929688 59.617188 105.613281 63.421875 104.117188 67.238281 C 102.945312 64.953125 101.71875 62.652344 100.367188 60.359375 C 99.050781 58.0625 97.644531 55.828125 96.238281 53.648438 Z M 53.710938 53.644531 C 52.304688 55.851562 50.898438 58.109375 49.585938 60.441406 C 48.265625 62.722656 47.035156 65.019531 45.863281 67.316406 C 44.3125 63.472656 42.992188 59.644531 41.902344 55.914062 C 45.652344 55.035156 49.601562 54.253906 53.703125 53.652344 Z M 75 52.152344 C 79.335938 52.152344 83.652344 52.351562 87.898438 52.695312 C 90.277344 56.105469 92.585938 59.738281 94.828125 63.589844 C 97.007812 67.339844 98.992188 71.140625 100.789062 74.992188 C 98.984375 78.828125 97.007812 82.664062 94.855469 86.414062 C 92.628906 90.28125 90.328125 93.960938 87.941406 97.367188 C 83.675781 97.738281 79.355469 97.941406 74.996094 97.941406 C 70.660156 97.941406 66.34375 97.734375 62.09375 97.398438 C 59.71875 93.988281 57.398438 90.34375 55.167969 86.503906 C 52.988281 82.753906 51 78.953125 49.203125 75.101562 C 50.980469 71.253906 52.988281 67.410156 55.140625 63.65625 C 57.367188 59.789062 59.667969 56.125 62.054688 52.714844 C 66.320312 52.339844 70.640625 52.144531 75 52.144531 Z M 74.910156 36.773438 C 77.628906 39.585938 80.234375 42.570312 82.6875 45.683594 L 82.875 45.933594 C 80.296875 45.816406 77.664062 45.734375 74.996094 45.734375 C 72.300781 45.734375 69.636719 45.792969 67.027344 45.933594 C 69.632812 42.558594 72.210938 39.570312 74.945312 36.726562 L 74.90625 36.765625 Z M 46.3125 18.90625 C 55.9375 20.667969 64.21875 25.453125 70.355469 32.222656 L 70.386719 32.257812 C 66.265625 36.589844 62.386719 41.253906 58.828125 46.171875 L 58.554688 46.566406 C 51.640625 47.28125 45.441406 48.390625 39.402344 49.914062 L 40.320312 49.714844 C 39.664062 46.847656 39.179688 44.066406 38.835938 41.398438 C 37.492188 30.460938 39.148438 21.953125 43.015625 19.6875 C 43.984375 19.234375 45.113281 18.953125 46.304688 18.914062 L 46.316406 18.914062 Z M 103.546875 18.789062 L 103.546875 18.824219 C 103.609375 18.824219 103.679688 18.820312 103.753906 18.820312 C 104.875 18.820312 105.929688 19.097656 106.855469 19.585938 L 106.820312 19.566406 C 110.71875 21.800781 112.410156 30.3125 111.09375 41.265625 C 110.78125 43.960938 110.265625 46.800781 109.632812 49.695312 C 104.546875 48.394531 98.351562 47.292969 92.035156 46.621094 L 91.433594 46.570312 C 87.5625 41.253906 83.652344 36.582031 79.457031 32.179688 L 79.515625 32.234375 C 85.660156 25.390625 93.9375 20.574219 103.296875 18.835938 L 103.5625 18.792969 Z M 103.574219 12.402344 C 92.128906 14.140625 82.21875 19.703125 74.980469 27.722656 L 74.945312 27.765625 C 67.65625 19.75 57.746094 14.226562 46.578125 12.554688 L 46.316406 12.519531 C 46.257812 12.519531 46.179688 12.519531 46.105469 12.519531 C 43.804688 12.519531 41.644531 13.125 39.773438 14.183594 L 39.839844 14.152344 C 31.785156 18.796875 29.980469 33.273438 34.140625 51.4375 C 16.308594 56.945312 4.710938 65.746094 4.710938 75.023438 C 4.710938 84.335938 16.367188 93.164062 34.25 98.628906 C 30.125 116.863281 31.96875 131.363281 40.039062 136.003906 C 41.8125 137.019531 43.941406 137.617188 46.203125 137.617188 C 46.308594 137.617188 46.410156 137.617188 46.507812 137.609375 L 46.496094 137.609375 C 57.941406 135.871094 67.851562 130.308594 75.089844 122.28125 L 75.125 122.242188 C 82.414062 130.261719 92.324219 135.78125 103.492188 137.457031 L 103.753906 137.488281 C 103.824219 137.488281 103.914062 137.488281 103.996094 137.488281 C 106.285156 137.488281 108.4375 136.890625 110.296875 135.84375 L 110.230469 135.875 C 118.28125 131.234375 120.089844 116.761719 115.929688 98.59375 C 133.695312 93.132812 145.292969 84.308594 145.292969 75.019531 C 145.292969 65.703125 133.636719 56.878906 115.753906 51.398438 C 119.878906 33.183594 118.035156 18.671875 109.964844 14.023438 C 108.171875 13 106.027344 12.394531 103.738281 12.394531 C 103.679688 12.394531 103.617188 12.394531 103.554688 12.394531 L 103.566406 12.394531 Z M 88.0625 75.023438 C 88.0625 82.257812 82.199219 88.121094 74.96875 88.121094 C 67.734375 88.121094 61.871094 82.257812 61.871094 75.023438 C 61.871094 67.789062 67.734375 61.925781 74.96875 61.925781 C 78.585938 61.925781 81.859375 63.394531 84.230469 65.761719 C 86.601562 68.132812 88.0625 71.40625 88.0625 75.023438 Z M 88.0625 75.023438 " fill-opacity="1" fill-rule="nonzero"/><path fill="#000000" d="M 169.585938 141.378906 L 146.164062 154.957031 C 145.285156 155.464844 144.75 156.402344 144.757812 157.417969 L 144.757812 184.574219 C 144.757812 185.589844 145.296875 186.527344 146.164062 187.027344 L 169.59375 200.621094 C 170.464844 201.128906 171.535156 201.128906 172.414062 200.621094 L 195.835938 187.035156 C 196.703125 186.527344 197.242188 185.589844 197.242188 184.585938 L 197.242188 157.414062 C 197.242188 156.398438 196.703125 155.460938 195.824219 154.953125 L 172.417969 141.378906 C 171.546875 140.871094 170.464844 140.871094 169.59375 141.378906 Z M 169.585938 141.378906 " fill-opacity="1" fill-rule="nonzero"/></svg>