<svg xmlns="http://www.w3.org/2000/svg" xmlns:xlink="http://www.w3.org/1999/xlink" width="200" zoomAndPan="magnify" viewBox="0 0 150 149.999998" height="200" preserveAspectRatio="xMidYMid meet" version="1.0"><path fill="#005249" d="M 132.1875 36.875 L 80.3125 7.5 C 79.480469 7.109375 78.617188 6.816406 77.722656 6.613281 C 76.824219 6.414062 75.917969 6.316406 75 6.316406 C 74.082031 6.316406 73.175781 6.414062 72.277344 6.613281 C 71.382812 6.816406 70.519531 7.109375 69.6875 7.5 L 17.8125 36.875 C 17.015625 37.335938 16.289062 37.890625 15.636719 38.539062 C 14.984375 39.1875 14.421875 39.910156 13.957031 40.703125 C 13.492188 41.5 13.136719 42.339844 12.890625 43.226562 C 12.640625 44.113281 12.511719 45.015625 12.5 45.9375 L 12.5 104.0625 C 12.511719 104.984375 12.640625 105.886719 12.890625 106.773438 C 13.136719 107.660156 13.492188 108.5 13.957031 109.296875 C 14.421875 110.089844 14.984375 110.8125 15.636719 111.460938 C 16.289062 112.109375 17.015625 112.664062 17.8125 113.125 L 31.5625 120.9375 C 33.359375 122 35.265625 122.792969 37.28125 123.324219 C 39.300781 123.855469 41.351562 124.101562 43.4375 124.0625 C 53.125 124.0625 58.75 118.125 58.75 108.125 L 58.75 50.9375 C 58.75 50.730469 58.710938 50.53125 58.632812 50.339844 C 58.550781 50.148438 58.4375 49.980469 58.292969 49.832031 C 58.144531 49.6875 57.976562 49.574219 57.785156 49.492188 C 57.59375 49.414062 57.394531 49.375 57.1875 49.375 L 50.625 49.375 C 50.417969 49.375 50.21875 49.414062 50.027344 49.492188 C 49.835938 49.574219 49.667969 49.6875 49.519531 49.832031 C 49.375 49.980469 49.261719 50.148438 49.179688 50.339844 C 49.101562 50.53125 49.0625 50.730469 49.0625 50.9375 L 49.0625 108.125 C 49.0625 112.8125 44.375 117.1875 36.875 113.4375 L 22.5 105.3125 C 22.082031 105 21.875 104.582031 21.875 104.0625 L 21.875 45.9375 C 21.898438 45.34375 22.105469 44.820312 22.5 44.375 L 74.0625 15.3125 L 75.9375 15.3125 L 127.5 44.375 C 127.894531 44.820312 128.101562 45.34375 128.125 45.9375 L 128.125 104.0625 C 128.125 104.582031 127.917969 105 127.5 105.3125 L 75.9375 134.375 C 75.648438 134.542969 75.335938 134.625 75 134.625 C 74.664062 134.625 74.351562 134.542969 74.0625 134.375 L 60.9375 126.875 C 60.757812 126.714844 60.550781 126.636719 60.3125 126.636719 C 60.074219 126.636719 59.867188 126.714844 59.6875 126.875 L 51.875 130.3125 C 50.9375 130.625 49.6875 130.9375 52.1875 132.5 L 69.6875 142.1875 C 70.476562 142.703125 71.324219 143.097656 72.226562 143.367188 C 73.132812 143.640625 74.054688 143.773438 75 143.773438 C 75.945312 143.773438 76.867188 143.640625 77.773438 143.367188 C 78.675781 143.097656 79.523438 142.703125 80.3125 142.1875 L 132.1875 113.125 C 132.984375 112.664062 133.710938 112.109375 134.363281 111.460938 C 135.015625 110.8125 135.578125 110.089844 136.042969 109.296875 C 136.507812 108.5 136.863281 107.660156 137.109375 106.773438 C 137.359375 105.886719 137.488281 104.984375 137.5 104.0625 L 137.5 45.9375 C 137.488281 45.015625 137.359375 44.113281 137.109375 43.226562 C 136.863281 42.339844 136.507812 41.5 136.042969 40.703125 C 135.578125 39.910156 135.015625 39.1875 134.363281 38.539062 C 133.710938 37.890625 132.984375 37.335938 132.1875 36.875 Z M 132.1875 36.875 " fill-opacity="1" fill-rule="nonzero"/><path fill="#005249" d="M 90.9375 94.6875 C 77.1875 94.6875 74.375 91.5625 73.125 85 C 73.125 84.835938 73.09375 84.675781 73.03125 84.523438 C 72.964844 84.367188 72.875 84.234375 72.757812 84.117188 C 72.640625 84 72.507812 83.910156 72.351562 83.84375 C 72.199219 83.78125 72.039062 83.75 71.875 83.75 L 65 83.75 C 64.835938 83.75 64.675781 83.78125 64.523438 83.84375 C 64.367188 83.910156 64.234375 84 64.117188 84.117188 C 64 84.234375 63.910156 84.367188 63.84375 84.523438 C 63.78125 84.675781 63.75 84.835938 63.75 85 C 63.75 93.4375 68.4375 103.75 90.9375 103.75 C 107.1875 103.75 116.5625 97.5 116.5625 86.5625 C 116.5625 75.625 109.0625 72.5 93.125 70.625 C 77.1875 68.75 75.625 67.5 75.625 63.75 C 75.625 60 76.875 56.875 88.75 56.875 C 100.625 56.875 103.4375 59.0625 105 65.9375 C 105.074219 66.308594 105.261719 66.609375 105.554688 66.84375 C 105.847656 67.082031 106.183594 67.195312 106.5625 67.1875 L 113.125 67.1875 L 114.375 66.5625 C 114.613281 66.292969 114.71875 65.980469 114.6875 65.625 C 113.75 53.4375 105.3125 47.8125 88.75 47.8125 C 72.1875 47.8125 65.3125 54.0625 65.3125 64.0625 C 65.3125 74.0625 74.0625 78.125 88.125 79.6875 C 102.1875 81.25 106.5625 83.4375 106.5625 86.875 C 106.5625 90.3125 101.875 94.6875 90.9375 94.6875 Z M 90.9375 94.6875 " fill-opacity="1" fill-rule="nonzero"/></svg>