<svg xmlns="http://www.w3.org/2000/svg" xmlns:xlink="http://www.w3.org/1999/xlink" width="200" zoomAndPan="magnify" viewBox="0 0 150 149.999998" height="200" preserveAspectRatio="xMidYMid meet" version="1.0"><path fill="#005249" d="M 31.15625 12.5 C 22.597656 12.5 16.261719 19.992188 16.546875 28.117188 C 16.820312 35.921875 16.464844 46.027344 13.921875 54.273438 C 11.367188 62.539062 7.050781 67.777344 0 68.449219 L 0 76.042969 C 7.050781 76.714844 11.367188 81.953125 13.921875 90.21875 C 16.464844 98.460938 16.820312 108.570312 16.546875 116.375 C 16.261719 124.5 22.597656 131.992188 31.15625 131.992188 L 118.855469 131.992188 C 127.414062 131.992188 133.746094 124.5 133.464844 116.375 C 133.191406 108.570312 133.542969 98.460938 136.089844 90.21875 C 138.644531 81.953125 142.949219 76.714844 150 76.042969 L 150 68.449219 C 142.949219 67.777344 138.644531 62.539062 136.089844 54.273438 C 133.542969 46.03125 133.191406 35.921875 133.464844 28.117188 C 133.746094 19.992188 127.414062 12.5 118.855469 12.5 L 31.152344 12.5 Z M 101.695312 86.054688 C 101.695312 97.242188 93.351562 104.027344 79.503906 104.027344 L 55.933594 104.027344 C 55.257812 104.027344 54.609375 103.757812 54.132812 103.28125 C 53.65625 102.804688 53.390625 102.15625 53.390625 101.484375 L 53.390625 43.007812 C 53.390625 42.335938 53.65625 41.6875 54.132812 41.210938 C 54.609375 40.734375 55.257812 40.464844 55.933594 40.464844 L 79.371094 40.464844 C 90.914062 40.464844 98.492188 46.71875 98.492188 56.324219 C 98.492188 63.0625 93.394531 69.097656 86.902344 70.152344 L 86.902344 70.503906 C 95.742188 71.476562 101.695312 77.597656 101.695312 86.054688 Z M 76.933594 48.527344 L 63.492188 48.527344 L 63.492188 67.507812 L 74.8125 67.507812 C 83.5625 67.507812 88.390625 63.984375 88.390625 57.6875 C 88.390625 51.785156 84.238281 48.527344 76.933594 48.527344 Z M 63.492188 75.042969 L 63.492188 95.964844 L 77.429688 95.964844 C 86.539062 95.964844 91.363281 92.308594 91.363281 85.4375 C 91.363281 78.566406 86.402344 75.042969 76.84375 75.042969 Z M 63.492188 75.042969 " fill-opacity="1" fill-rule="evenodd"/></svg>