<svg xmlns="http://www.w3.org/2000/svg" xmlns:xlink="http://www.w3.org/1999/xlink" width="200" zoomAndPan="magnify" viewBox="0 0 150 149.999998" height="200" preserveAspectRatio="xMidYMid meet" version="1.0"><path fill="#005249" d="M 88.472656 46.570312 L 77.8125 26.175781 C 77.269531 25.15625 76.214844 24.472656 75 24.472656 C 73.785156 24.472656 72.730469 25.152344 72.195312 26.15625 L 72.1875 26.175781 L 25.382812 110.054688 Z M 125.867188 118.132812 L 112.6875 36.125 C 112.445312 34.601562 111.136719 33.449219 109.5625 33.449219 C 108.675781 33.449219 107.878906 33.8125 107.300781 34.398438 L 24.125 118.140625 L 70.144531 144.070312 C 71.484375 144.835938 73.085938 145.289062 74.792969 145.289062 C 76.5 145.289062 78.109375 144.839844 79.492188 144.046875 L 79.445312 144.070312 Z M 27.492188 96.511719 L 41.34375 7.410156 C 41.582031 5.875 42.894531 4.707031 44.484375 4.707031 C 45.695312 4.707031 46.75 5.382812 47.28125 6.378906 L 47.292969 6.398438 L 62.1875 34.34375 Z M 27.492188 96.511719 " fill-opacity="1" fill-rule="nonzero"/></svg>